<?xml version="1.0" encoding="utf-8"?>
<!-- Generator: Adobe Illustrator 24.0.2, SVG Export Plug-In . SVG Version: 6.00 Build 0)  -->
<svg version="1.1" id="Calque_1" xmlns="http://www.w3.org/2000/svg" xmlns:xlink="http://www.w3.org/1999/xlink" x="0px" y="0px"
	 viewBox="0 0 512 450" style="enable-background:new 0 0 512 450;" xml:space="preserve">
<style type="text/css">
	.st0{clip-path:url(#SVGID_2_);fill:#2EB5BA;}
	.st1{clip-path:url(#SVGID_4_);fill:#F08110;}
	.st2{clip-path:url(#SVGID_6_);fill:#A165A7;}
</style>
<g>
	<g>
		<path d="M161.5,338.2v-90.5c-0.3-33.1,0.8-96.2,3.2-189.3V42c0-2.9,0.5-4.7,1.6-5.2h137.7c1.3,0,4,5.1,8.1,15.2
			c4.1,10.1,9,23.2,14.8,39.1c5.8,15.9,9.9,26.9,12.3,32.9l28,73.3v-77.7c0-6.7,0.2-18.9,0.5-36.7c0.3-17.8,0.4-31.7,0.3-41.7
			c0-3.7,10.7-5.6,32-5.6c6.7,0,15.8,0.1,27.4,0.4c11.6,0.3,18.7,0.4,21.4,0.4h15.2c2.1,0,3.2,0.4,3.2,1.2
			c0.8,37.1,1.2,90.2,1.2,159.3v138.9c-0.9,3.5-5.2,5.2-12.8,5.2h-5.2c-6.9,0-17.1,0.1-30.6,0.4c-13.5,0.3-23.7,0.4-30.6,0.4h-58.8
			c-1.9-0.7-5.7-9.1-11.6-25.2c-6.3-17.5-15.6-42.8-28-75.9c-12.4-33.1-19.3-51.6-20.8-55.4c0,7.9-0.1,19.6-0.2,35.2
			c-0.1,15.6-0.2,27.4-0.2,35.2c0,5.9,0.1,14.7,0.4,26.4c0.3,11.7,0.4,20.6,0.4,26.4v25.2c0,6.1-2.7,9.2-8,9.2h-92.1L161.5,338.2z"
			/>
	</g>
	<g>
		<defs>
			<rect id="SVGID_1_" x="21" y="208.4" width="115.8" height="42.1"/>
		</defs>
		<clipPath id="SVGID_2_">
			<use xlink:href="#SVGID_1_"  style="overflow:visible;"/>
		</clipPath>
		<circle class="st0" cx="81.5" cy="192.4" r="49.2"/>
	</g>
	<g>
		<defs>
			<rect id="SVGID_3_" x="21" y="175.4" width="115.8" height="26.3"/>
		</defs>
		<clipPath id="SVGID_4_">
			<use xlink:href="#SVGID_3_"  style="overflow:visible;"/>
		</clipPath>
		<circle class="st1" cx="81.5" cy="192.4" r="49.2"/>
	</g>
	<g>
		<defs>
			<rect id="SVGID_5_" x="21" y="128.4" width="115.8" height="40.5"/>
		</defs>
		<clipPath id="SVGID_6_">
			<use xlink:href="#SVGID_5_"  style="overflow:visible;"/>
		</clipPath>
		<circle class="st2" cx="81.5" cy="192.4" r="49.2"/>
	</g>
</g>
</svg>
